<svg width="16" height="17" viewBox="0 0 16 17" fill="none" xmlns="http://www.w3.org/2000/svg">
<path fill-rule="evenodd" clip-rule="evenodd" d="M11.0356 1.83334C10.0705 1.83333 9.44834 1.9483 8.73518 2.29738C8.47115 2.42661 8.22344 2.58226 7.99339 2.76384C7.77221 2.59244 7.5344 2.44394 7.28129 2.31875C6.55429 1.95918 5.90027 1.83333 4.96978 1.83333C2.47771 1.83333 0.666748 3.89817 0.666748 6.57991C0.666748 8.60516 1.79597 10.5615 3.89931 12.4533C5.00334 13.4462 6.41296 14.4289 7.42248 14.9516L8.00008 15.2507L8.57768 14.9516C9.5872 14.4289 10.9968 13.4462 12.1009 12.4533C14.2042 10.5615 15.3334 8.60516 15.3334 6.57991C15.3334 3.92656 13.5054 1.84357 11.0356 1.83334ZM14.0001 6.57991C14.0001 8.16659 13.0575 9.79954 11.2092 11.4619C10.2015 12.3682 8.90606 13.274 8.00008 13.7491C7.09411 13.274 5.79863 12.3682 4.79093 11.4619C2.94263 9.79954 2.00008 8.16659 2.00008 6.57991C2.00008 4.59847 3.25584 3.16666 4.96978 3.16666C5.7096 3.16666 6.1655 3.25439 6.69017 3.51389C7.00009 3.66717 7.274 3.86958 7.5111 4.12251L8.00164 4.6458L8.48771 4.11836C8.73015 3.8553 9.00809 3.64829 9.32136 3.49495C9.83066 3.24566 10.2581 3.16666 11.0328 3.16667C12.7256 3.17368 14.0001 4.62597 14.0001 6.57991Z" fill="black"/>
</svg>
