<svg width="16" height="17" viewBox="0 0 16 17" fill="none" xmlns="http://www.w3.org/2000/svg">
<g clip-path="url(#clip0_366_542)">
<path d="M12.76 9.12666C12.7867 8.92666 12.8 8.72 12.8 8.5C12.8 8.28666 12.7867 8.07333 12.7533 7.87333L14.1067 6.82C14.2267 6.72666 14.26 6.54666 14.1867 6.41333L12.9067 4.2C12.8267 4.05333 12.66 4.00666 12.5133 4.05333L10.92 4.69333C10.5867 4.44 10.2333 4.22666 9.83999 4.06666L9.59999 2.37333C9.57332 2.21333 9.43999 2.1 9.27999 2.1H6.71999C6.55999 2.1 6.43332 2.21333 6.40666 2.37333L6.16666 4.06666C5.77332 4.22666 5.41332 4.44666 5.08666 4.69333L3.49332 4.05333C3.34666 4 3.17999 4.05333 3.09999 4.2L1.82666 6.41333C1.74666 6.55333 1.77333 6.72666 1.90666 6.82L3.25999 7.87333C3.22666 8.07333 3.19999 8.29333 3.19999 8.5C3.19999 8.70667 3.21332 8.92666 3.24666 9.12666L1.89333 10.18C1.77333 10.2733 1.73999 10.4533 1.81333 10.5867L3.09332 12.8C3.17332 12.9467 3.33999 12.9933 3.48666 12.9467L5.07999 12.3067C5.41332 12.56 5.76666 12.7733 6.15999 12.9333L6.39999 14.6267C6.43332 14.7867 6.55999 14.9 6.71999 14.9H9.27999C9.43999 14.9 9.57332 14.7867 9.59332 14.6267L9.83332 12.9333C10.2267 12.7733 10.5867 12.56 10.9133 12.3067L12.5067 12.9467C12.6533 13 12.82 12.9467 12.9 12.8L14.18 10.5867C14.26 10.44 14.2267 10.2733 14.1 10.18L12.76 9.12666ZM7.99999 10.9C6.67999 10.9 5.59999 9.82 5.59999 8.5C5.59999 7.18 6.67999 6.1 7.99999 6.1C9.31999 6.1 10.4 7.18 10.4 8.5C10.4 9.82 9.31999 10.9 7.99999 10.9Z" fill="#606060"/>
</g>
<defs>
<clipPath id="clip0_366_542">
<rect width="16" height="16" fill="white" transform="translate(0 0.5)"/>
</clipPath>
</defs>
</svg>
